<svg width="577" height="380" xmlns="http://www.w3.org/2000/svg" xmlns:xlink="http://www.w3.org/1999/xlink" xml:space="preserve" overflow="hidden"><g><path d="M100.548 57.6194C100.548 78.1861 83.8749 94.8592 63.308 94.8592 42.7409 94.8592 26.068 78.1861 26.068 57.6194 26.068 37.0522 42.7409 20.3794 63.308 20.3794 83.8749 20.3794 100.548 37.0522 100.548 57.6194Z" stroke="#000000" stroke-width="1.52" stroke-linecap="round" stroke-linejoin="round" fill="#FFCF9E" transform="matrix(1.35573 0 0 1 202.671 18.3807)"/><path d="M100.548 57.6194C100.548 78.1861 83.8749 94.8592 63.308 94.8592 42.7409 94.8592 26.068 78.1861 26.068 57.6194 26.068 37.0522 42.7409 20.3794 63.308 20.3794 83.8749 20.3794 100.548 37.0522 100.548 57.6194Z" stroke="#000000" stroke-width="1.52" stroke-linecap="round" stroke-linejoin="round" fill="#FFCF9E" transform="matrix(1.35573 0 0 1 202.671 101.981)"/><path d="M100.548 57.6194C100.548 78.1861 83.8749 94.8592 63.308 94.8592 42.7409 94.8592 26.068 78.1861 26.068 57.6194 26.068 37.0522 42.7409 20.3794 63.308 20.3794 83.8749 20.3794 100.548 37.0522 100.548 57.6194Z" stroke="#000000" stroke-width="1.52" stroke-linecap="round" stroke-linejoin="round" fill="#FFCF9E" transform="matrix(1.35573 0 0 1 202.671 185.581)"/><path d="M100.548 57.6194C100.548 78.1861 83.8749 94.8592 63.308 94.8592 42.7409 94.8592 26.068 78.1861 26.068 57.6194 26.068 37.0522 42.7409 20.3794 63.308 20.3794 83.8749 20.3794 100.548 37.0522 100.548 57.6194Z" stroke="#000000" stroke-width="1.52" stroke-linecap="round" stroke-linejoin="round" fill="#FFCF9E" transform="matrix(1.35573 0 0 1 202.671 269.181)"/><path d="M100.548 57.6194C100.548 78.1861 83.8749 94.8592 63.308 94.8592 42.7409 94.8592 26.068 78.1861 26.068 57.6194 26.068 37.0522 42.7409 20.3794 63.308 20.3794 83.8749 20.3794 100.548 37.0522 100.548 57.6194Z" stroke="#000000" stroke-width="1.52" stroke-linecap="round" stroke-linejoin="round" fill="#FFCF9E" transform="matrix(1.35573 0 0 1 -13.7037 60.1806)"/><path d="M100.548 57.6194C100.548 78.1861 83.8749 94.8592 63.308 94.8592 42.7409 94.8592 26.068 78.1861 26.068 57.6194 26.068 37.0522 42.7409 20.3794 63.308 20.3794 83.8749 20.3794 100.548 37.0522 100.548 57.6194Z" stroke="#000000" stroke-width="1.52" stroke-linecap="round" stroke-linejoin="round" fill="#FFCF9E" transform="matrix(1.35573 0 0 1 -13.7037 143.781)"/><path d="M100.548 57.6194C100.548 78.1861 83.8749 94.8592 63.308 94.8592 42.7409 94.8592 26.068 78.1861 26.068 57.6194 26.068 37.0522 42.7409 20.3794 63.308 20.3794 83.8749 20.3794 100.548 37.0522 100.548 57.6194Z" stroke="#000000" stroke-width="1.52" stroke-linecap="round" stroke-linejoin="round" fill="#FFCF9E" transform="matrix(1.35573 0 0 1 -13.7037 227.381)"/><path d="M100.548 57.6194C100.548 78.1861 83.8749 94.8592 63.308 94.8592 42.7409 94.8592 26.068 78.1861 26.068 57.6194 26.068 37.0522 42.7409 20.3794 63.308 20.3794 83.8749 20.3794 100.548 37.0522 100.548 57.6194Z" stroke="#000000" stroke-width="1.52" stroke-linecap="round" stroke-linejoin="round" fill="#FFCF9E" transform="matrix(1.35573 0 0 1 419.046 101.981)"/><path d="M100.548 57.6194C100.548 78.1861 83.8749 94.8592 63.308 94.8592 42.7409 94.8592 26.068 78.1861 26.068 57.6194 26.068 37.0522 42.7409 20.3794 63.308 20.3794 83.8749 20.3794 100.548 37.0522 100.548 57.6194Z" stroke="#000000" stroke-width="1.52" stroke-linecap="round" stroke-linejoin="round" fill="#FFCF9E" transform="matrix(1.35573 0 0 1 419.046 185.581)"/><text font-family="Arial,Arial_MSFontService,sans-serif" font-weight="400" font-size="32" transform="matrix(1.03036 0 0 0.76 454.709 109)">Output</text><text font-family="Arial,Arial_MSFontService,sans-serif" font-weight="400" font-size="32" transform="matrix(1.03036 0 0 0.76 234.181 30)">Hidden</text><path d="M166.867 79.1114C166.867 79.1114 166.867 79.1114 90.8671 117.111L91.5329 118.489C129.533 99.4886 148.533 89.9886 158.033 85.2386 162.783 82.8636 165.157 81.6764 166.345 81.0829 166.939 80.7857 167.242 80.6345 167.39 80.56 167.464 80.5228 167.514 80.4977 167.533 80.4886L167.2 79.8 166.867 79.1114Z" fill-rule="evenodd" transform="scale(1.35573 1)"/><path d="M173.475 76.662 166.787 86.8042 161.349 75.928 173.475 76.662Z" stroke="#000000" stroke-width="0.810669" fill-rule="evenodd" transform="scale(1.35573 1)"/><path d="M170.383 94.5486C170.383 94.5486 170.383 94.5486 90.5829 200.949L91.8171 201.851C131.717 148.651 151.667 122.051 161.643 108.751 166.63 102.101 169.112 98.7764 170.359 97.1136 170.983 96.2829 171.296 95.8725 171.451 95.665 171.529 95.5609 171.575 95.5008 171.594 95.475 171.603 95.4621 171.591 95.4545 171.594 95.4514L170.383 94.5486Z" fill-rule="evenodd" transform="scale(1.35573 1)"/><path d="M175.21 89.3866 173.763 101.449 164.035 94.1534 175.21 89.3866Z" stroke="#000000" stroke-width="0.810669" fill-rule="evenodd" transform="scale(1.35573 1)"/><path d="M181.735 109.844 90.535 284.644 91.865 285.356 183.065 110.556 181.735 109.844Z" fill-rule="evenodd" transform="scale(1.35573 1)"/><path d="M185.645 103.979 186.17 116.117 175.39 110.493 185.645 103.979Z" stroke="#000000" stroke-width="0.810669" fill-rule="evenodd" transform="scale(1.35573 1)"/><path d="M91.4614 117.087 90.9386 118.513C128.939 131.813 147.939 138.463 157.439 141.787 162.189 143.45 164.564 144.293 165.751 144.709 166.345 144.917 166.647 145.013 166.796 145.065 166.87 145.091 166.92 145.106 166.939 145.113L167.2 144.4 167.461 143.687C167.461 143.687 167.461 143.687 91.4614 117.087Z" fill-rule="evenodd" transform="scale(1.35573 1)"/><path d="M173.823 146.718 161.886 148.982 165.903 137.505 173.823 146.718Z" stroke="#000000" stroke-width="0.810669" fill-rule="evenodd" transform="scale(1.35573 1)"/><path d="M174.23 189.501C174.23 189.501 174.23 189.501 90.63 284.501L91.77 285.499C133.57 237.999 154.47 214.249 164.92 202.374 170.145 196.436 172.757 193.479 174.064 191.995 174.717 191.252 175.04 190.874 175.204 190.689 175.286 190.596 175.326 190.546 175.346 190.523 175.356 190.511 175.368 190.502 175.37 190.499L174.23 189.501Z" fill-rule="evenodd" transform="scale(1.35573 1)"/><path d="M179.435 184.732 177.051 196.645 167.922 188.612 179.435 184.732Z" stroke="#000000" stroke-width="0.810669" fill-rule="evenodd" transform="scale(1.35573 1)"/><path d="M166.891 166.511 90.8914 200.711 91.5086 202.089 167.509 167.889 166.891 166.511Z" fill-rule="evenodd" transform="scale(1.35573 1)"/><path d="M173.598 164.321 166.502 174.181 161.511 163.093 173.598 164.321Z" stroke="#000000" stroke-width="0.810669" fill-rule="evenodd" transform="scale(1.35573 1)"/><path d="M91.4614 200.687 90.9386 202.113 166.939 228.713 167.461 227.287 91.4614 200.687Z" fill-rule="evenodd" transform="scale(1.35573 1)"/><path d="M173.823 230.318 161.886 232.582 165.903 221.105 173.823 230.318Z" stroke="#000000" stroke-width="0.810669" fill-rule="evenodd" transform="scale(1.35573 1)"/><path d="M91.77 117.301 90.63 118.299 174.23 213.299 175.37 212.301 91.77 117.301Z" fill-rule="evenodd" transform="scale(1.35573 1)"/><path d="M179.435 218.068 167.922 214.188 177.051 206.155 179.435 218.068Z" stroke="#000000" stroke-width="0.810669" fill-rule="evenodd" transform="scale(1.35573 1)"/><path d="M91.865 117.444 90.535 118.156 177.935 289.156 179.265 288.444 91.865 117.444Z" fill-rule="evenodd" transform="scale(1.35573 1)"/><path d="M181.794 295.047 171.592 288.449 182.42 282.915 181.794 295.047Z" stroke="#000000" stroke-width="0.810669" fill-rule="evenodd" transform="scale(1.35573 1)"/><path d="M91.7936 200.925 90.6064 201.875 170.406 300.675 171.594 299.725 91.7936 200.925Z" fill-rule="evenodd" transform="scale(1.35573 1)"/><path d="M175.409 305.658 164.07 301.296 173.529 293.656 175.409 305.658Z" stroke="#000000" stroke-width="0.810669" fill-rule="evenodd" transform="scale(1.35573 1)"/><path d="M91.485 284.287 90.915 285.713 166.963 316.113 167.509 314.687 91.485 284.287Z" fill-rule="evenodd" transform="scale(1.35573 1)"/><path d="M173.748 318.005 161.724 319.746 166.239 308.454 173.748 318.005Z" stroke="#000000" stroke-width="0.810669" fill-rule="evenodd" transform="scale(1.35573 1)"/><path d="M166.915 253.816 90.915 284.287 91.485 285.713 167.485 255.241 166.915 253.816Z" fill-rule="evenodd" transform="scale(1.35573 1)"/><path d="M173.712 251.914 166.212 261.472 161.687 250.186 173.712 251.914Z" stroke="#000000" stroke-width="0.810669" fill-rule="evenodd" transform="scale(1.35573 1)"/><path d="M250.8 158.84 250.8 160.36 326.8 160.36 326.8 158.84 250.8 158.84Z" fill-rule="evenodd" transform="scale(1.35573 1)"/><path d="M333.816 159.6 323.298 165.68 323.298 153.52 333.816 159.6Z" stroke="#000000" stroke-width="0.810669" fill-rule="evenodd" transform="scale(1.35573 1)"/><path d="M250.8 242.44 250.8 243.96 326.8 243.96 326.8 242.44 250.8 242.44Z" fill-rule="evenodd" transform="scale(1.35573 1)"/><path d="M333.816 243.2 323.298 249.28 323.298 237.12 333.816 243.2Z" stroke="#000000" stroke-width="0.810669" fill-rule="evenodd" transform="scale(1.35573 1)"/><path d="M326.301 174.23 250.301 242.63 251.299 243.77 327.299 175.37 326.301 174.23Z" fill-rule="evenodd" transform="scale(1.35573 1)"/><path d="M332.015 170.106 328.265 181.662 320.129 172.623 332.015 170.106Z" stroke="#000000" stroke-width="0.810669" fill-rule="evenodd" transform="scale(1.35573 1)"/><path d="M365.435 293.773 277.106 361.071 278.105 362.385 366.434 295.087 365.435 293.773Z" fill-rule="evenodd" transform="matrix(1.20169 0 0 1 6.41147 -34.9933)"/><path d="M372.112 289.723 366.93 302.132 358.772 291.426 372.112 289.723Z" stroke="#000000" stroke-width="0.897313" fill-rule="evenodd" transform="matrix(1.20169 0 0 1 6.41147 -34.9933)"/><path d="M251.299 75.43 250.301 76.57 326.301 141.17 327.299 140.03 251.299 75.43Z" fill-rule="evenodd" transform="scale(1.35573 1)"/><path d="M332.146 145.144 320.194 142.964 328.069 133.699 332.146 145.144Z" stroke="#000000" stroke-width="0.810669" fill-rule="evenodd" transform="scale(1.35573 1)"/><path d="M145.368 87.8628 72.418 227.684 73.4819 228.254 146.432 88.433 145.368 87.8628Z" fill-rule="evenodd" transform="matrix(1.57032 0 0 1 225.978 98.7681)"/><path d="M148.496 83.1721 148.916 92.8811 140.293 88.3819 148.496 83.1721Z" stroke="#000000" stroke-width="0.648446" fill-rule="evenodd" transform="matrix(1.57032 0 0 1 225.978 98.7681)"/><path d="M73.9331 94.5188 72.8627 95.0925 143.202 232.714 144.273 232.14 73.9331 94.5188Z" fill-rule="evenodd" transform="matrix(1.66475 0 0 1 217.262 -18.4823)"/><path d="M146.308 237.455 138.098 232.144 146.812 227.69 146.308 237.455Z" stroke="#000000" stroke-width="0.652428" fill-rule="evenodd" transform="matrix(1.66475 0 0 1 217.262 -18.4823)"/><path d="M66.6525 85.196 65.8246 85.9202 126.543 154.919 127.371 154.195 66.6525 85.196Z" fill-rule="evenodd" transform="matrix(1.76436 0 0 1 222.302 73.2311)"/><path d="M130.324 158.382 121.962 155.565 128.592 149.73 130.324 158.382Z" stroke="#000000" stroke-width="0.588789" fill-rule="evenodd" transform="matrix(1.76436 0 0 1 222.302 73.2311)"/><text font-family="Arial,Arial_MSFontService,sans-serif" font-weight="400" font-size="32" transform="matrix(1.03036 0 0 0.76 35.3702 71)">Input</text></g></svg>